Coordinates
version=1
nRows=7
nColumns=40
inDegrees=yes

Units are S.I. units (second, meters, Newtons, ...)
Angles are in degrees.

endheader
time	pelvis_tilt	pelvis_list	pelvis_rotation	pelvis_tx	pelvis_ty	pelvis_tz	hip_flexion_r	hip_adduction_r	hip_rotation_r	knee_angle_r	knee_angle_r_beta	ankle_angle_r	subtalar_angle_r	mtp_angle_r	hip_flexion_l	hip_adduction_l	hip_rotation_l	knee_angle_l	knee_angle_l_beta	ankle_angle_l	subtalar_angle_l	mtp_angle_l	lumbar_extension	lumbar_bending	lumbar_rotation	arm_flex_r	arm_add_r	arm_rot_r	elbow_flex_r	pro_sup_r	wrist_flex_r	wrist_dev_r	arm_flex_l	arm_add_l	arm_rot_l	elbow_flex_l	pro_sup_l	wrist_flex_l	wrist_dev_l
     17.82500000	     -4.65672140	     -5.83467283	      3.26636756	      1.04892324	      0.92584354	      0.46606887	      0.84797691	      1.18781261	    -18.35911641	     17.44261648	     17.44261648	     16.88563818	      9.27279440	     -3.62959775	     24.80137790	     -6.53931289	      0.42990861	     27.95626967	     27.95626967	     11.36289991	    -13.13480181	      6.65772803	     -8.97802063	      6.51744319	      3.90825088	     26.16748801	    -18.62839717	     -5.60465114	     62.39783054	     45.09242513	      0.00000000	      0.00000000	     -0.13883645	     -7.98583650	     -5.30237866	     32.18070829	     44.77311814	      0.00000000	      0.00000000
     17.83771429	     -4.72167329	     -5.76556392	      2.97187533	      1.04923006	      0.92617140	      0.46288423	      1.43315096	      0.54461475	    -18.06919576	     19.12528738	     19.12528738	     16.77095673	      8.94240734	     -4.21008414	     24.36890814	     -6.43817341	     -0.12675828	     27.91729114	     27.91729114	     11.80650696	    -12.80015994	      6.51595450	     -8.99756643	      6.48684991	      3.98816865	     25.19793027	    -18.87713783	     -5.89481586	     60.73601467	     45.16121603	      0.00000000	      0.00000000	      0.52840675	     -8.18614600	     -5.39960276	     32.43262274	     44.81170125	      0.00000000	      0.00000000
     17.85042857	     -4.78462381	     -5.73466802	      2.66488609	      1.04950850	      0.92642647	      0.45988999	      2.24416322	     -0.09440502	    -17.63366466	     21.20291872	     21.20291872	     16.54178360	      8.43221475	     -5.02302472	     23.93357388	     -6.38882730	     -0.64792598	     27.87870529	     27.87870529	     12.24819201	    -12.37720937	      6.32530905	     -9.00028477	      6.41582224	      4.07787449	     24.15652325	    -19.05909981	     -6.18640528	     58.84249772	     45.23791003	      0.00000000	      0.00000000	      1.20952587	     -8.40257101	     -5.50971059	     32.71721371	     44.85282288	      0.00000000	      0.00000000
     17.86314286	     -4.83201561	     -5.77090839	      2.37167039	      1.04975097	      0.92666460	      0.45705901	      3.09260179	     -0.58188388	    -16.96578451	     23.23572025	     23.23572025	     15.59547803	      7.28154921	     -7.42241855	     23.52071092	     -6.43640711	     -1.21399300	     27.88639796	     27.88639796	     12.76560081	    -11.82017918	      6.14895825	     -8.94039963	      6.43104286	      3.79295705	     24.09765392	    -18.51501634	     -7.19920417	     54.61832097	     45.43975152	      0.00000000	      0.00000000	      1.77231925	     -8.67068306	     -5.79322136	     32.82850804	     44.97177813	      0.00000000	      0.00000000
     17.87585714	     -4.83904271	     -5.68833835	      2.05018927	      1.04991705	      0.92687052	      0.45425175	      4.23420956	     -1.35187851	    -16.44546705	     25.97992689	     25.97992689	     15.17233099	      6.54933832	     -8.27721043	     23.00816756	     -6.33428838	     -1.75348091	     27.80122375	     27.80122375	     13.15647047	    -11.48132284	      5.92447877	     -9.05837476	      6.33429377	      3.78426592	     22.84657590	    -18.69177565	     -7.17917038	     53.47044670	     45.47494198	      0.00000000	      0.00000000	      2.40620383	     -8.97385293	     -5.95936980	     33.28033955	     45.01654891	      0.00000000	      0.00000000
     17.88857143	     -4.89000460	     -5.75585320	      1.73899022	      1.04999303	      0.92691708	      0.45177049	      5.55094393	     -1.82301676	    -15.55045776	     28.78406733	     28.78406733	     14.15201066	      4.91593779	    -10.04203170	     22.63996765	     -6.43559012	     -2.32267778	     27.85211217	     27.85211217	     13.56480577	    -10.99819472	      5.51415107	     -9.04385242	      6.33982155	      3.90939769	     21.85039111	    -18.82087087	     -7.36068659	     50.91254607	     45.57293765	      0.00000000	      0.00000000	      3.11702750	     -9.22577197	     -6.24109746	     33.85405268	     45.10592542	      0.00000000	      0.00000000
     17.90128571	     -4.85164543	     -5.63443299	      1.43588785	      1.05007398	      0.92708282	      0.44932374	      6.97854072	     -2.61778801	    -14.88952954	     32.01522455	     32.01522455	     13.36130774	      3.89431855	    -10.83763579	     22.05629917	     -6.30010545	     -2.85915972	     27.70426340	     27.70426340	     13.93913626	    -10.64909766	      5.28181911	     -9.18917002	      6.14632987	      3.70276692	     20.62539103	    -18.75616260	     -7.32920602	     49.75623937	     45.60718066	      0.00000000	      0.00000000	      3.75564739	     -9.62503429	     -6.38826677	     34.21371600	     45.14629865	      0.00000000	      0.00000000
